<svg xmlns:xlink="http://www.w3.org/1999/xlink" xmlns="http://www.w3.org/2000/svg" class="recharts-surface" width="483" height="357" viewBox="0 0 483 357" version="1.1"><defs><clipPath id="recharts149-clip"><rect x="0" y="5" height="317" width="483"></rect></clipPath><linearGradient id="gradient" x1="0" y1="0" x2="0" y2="1"><stop offset="5%" stop-color="#00E7B0" stop-opacity="0.34"></stop><stop offset="100%" stop-color="#0C8B6C" stop-opacity="0"></stop></linearGradient></defs><defs><linearGradient id="gradient" x1="0" y1="0" x2="0" y2="1"><stop offset="5%" stop-color="#00E7B0" stop-opacity="0.34"></stop><stop offset="100%" stop-color="#0C8B6C" stop-opacity="0"></stop></linearGradient></defs><g class="recharts-layer recharts-cartesian-axis recharts-xAxis xAxis"><g class="recharts-cartesian-axis-ticks"><g class="recharts-layer recharts-cartesian-axis-tick"><text orientation="bottom" width="483" height="30" type="category" x="40.25" y="330" stroke="none" fill="#666666" class="recharts-text recharts-cartesian-axis-tick-value" text-anchor="middle"><tspan x="40.25" dy="0.71em" fill="#666666">01:00 PM</tspan></text></g><g class="recharts-layer recharts-cartesian-axis-tick"><text orientation="bottom" width="483" height="30" type="category" x="120.75" y="330" stroke="none" fill="#666666" class="recharts-text recharts-cartesian-axis-tick-value" text-anchor="middle"><tspan x="120.75" dy="0.71em" fill="#666666">05:00 PM</tspan></text></g><g class="recharts-layer recharts-cartesian-axis-tick"><text orientation="bottom" width="483" height="30" type="category" x="201.25" y="330" stroke="none" fill="#666666" class="recharts-text recharts-cartesian-axis-tick-value" text-anchor="middle"><tspan x="201.25" dy="0.71em" fill="#666666">09:00 PM</tspan></text></g><g class="recharts-layer recharts-cartesian-axis-tick"><text orientation="bottom" width="483" height="30" type="category" x="281.75" y="330" stroke="none" fill="#666666" class="recharts-text recharts-cartesian-axis-tick-value" text-anchor="middle"><tspan x="281.75" dy="0.71em" fill="#666666">01:00 AM</tspan></text></g><g class="recharts-layer recharts-cartesian-axis-tick"><text orientation="bottom" width="483" height="30" type="category" x="362.25" y="330" stroke="none" fill="#666666" class="recharts-text recharts-cartesian-axis-tick-value" text-anchor="middle"><tspan x="362.25" dy="0.71em" fill="#666666">05:00 AM</tspan></text></g><g class="recharts-layer recharts-cartesian-axis-tick"><text orientation="bottom" width="483" height="30" type="category" x="453.68333435058594" y="330" stroke="none" fill="#666666" class="recharts-text recharts-cartesian-axis-tick-value" text-anchor="middle"><tspan x="453.68333435058594" dy="0.71em" fill="#666666">10:12 AM</tspan></text></g></g></g><g class="recharts-layer recharts-area"><g class="recharts-layer"><path fill="url(&quot;#gradient&quot;)" stroke-width="2px" fill-opacity="0.6" points="[object Object],[object Object],[object Object],[object Object],[object Object],[object Object],[object Object],[object Object],[object Object],[object Object],[object Object],[object Object],[object Object],[object Object],[object Object],[object Object],[object Object],[object Object],[object Object],[object Object],[object Object],[object Object],[object Object],[object Object],[object Object]" width="483" height="317" type="linear" stroke="none" class="recharts-curve recharts-area-area" d="M0,113.17575216236969L20.125,171.80485504383736L40.25,139.45863049810407L60.375,91.28585000209945L80.5,60.60692633709367L100.625,37.48103164769604L120.75,28.966398204768893L140.875,101.72088346870778L161,173.1301642680512L181.125,175.7538924468281L201.25,108.74384517062036L221.375,47.81722808806495L241.5,48.2796074117868L261.625,105.60327160659988L281.75,273.7013583742811L301.875,192.83738748573796L322,144.93206825885522L342.125,138.3626217940271L362.25,149.88698360987237L382.375,79.76808765921578L402.5,62.99796844615709L422.625,61.372751340979136L442.75,15.269505351534093L462.875,7.494346971046923L483,68.08299999999939L483,322L462.875,322L442.75,322L422.625,322L402.5,322L382.375,322L362.25,322L342.125,322L322,322L301.875,322L281.75,322L261.625,322L241.5,322L221.375,322L201.25,322L181.125,322L161,322L140.875,322L120.75,322L100.625,322L80.5,322L60.375,322L40.25,322L20.125,322L0,322Z"></path><path type="linear" stroke="#31D0AA" fill="none" stroke-width="2px" fill-opacity="0.6" points="[object Object],[object Object],[object Object],[object Object],[object Object],[object Object],[object Object],[object Object],[object Object],[object Object],[object Object],[object Object],[object Object],[object Object],[object Object],[object Object],[object Object],[object Object],[object Object],[object Object],[object Object],[object Object],[object Object],[object Object],[object Object]" width="483" height="317" class="recharts-curve recharts-area-curve" d="M0,113.17575216236969L20.125,171.80485504383736L40.25,139.45863049810407L60.375,91.28585000209945L80.5,60.60692633709367L100.625,37.48103164769604L120.75,28.966398204768893L140.875,101.72088346870778L161,173.1301642680512L181.125,175.7538924468281L201.25,108.74384517062036L221.375,47.81722808806495L241.5,48.2796074117868L261.625,105.60327160659988L281.75,273.7013583742811L301.875,192.83738748573796L322,144.93206825885522L342.125,138.3626217940271L362.25,149.88698360987237L382.375,79.76808765921578L402.5,62.99796844615709L422.625,61.372751340979136L442.75,15.269505351534093L462.875,7.494346971046923L483,68.08299999999939"></path></g></g></svg>